<svg width="32" height="32" viewBox="0 0 32 32" fill="none" xmlns="http://www.w3.org/2000/svg">
  <!-- Soft circular background matching the site's primary theme -->
  <circle cx="16" cy="16" r="16" fill="#FDF2F8"/>
  <circle cx="16" cy="16" r="14" fill="#FCE7F3" stroke="#FBCFE8" stroke-width="0.5"/>
  
  <g fill="#DB2777">
    <!-- Left Footprint -->
    <!-- Sole -->
    <path d="M13.5 19.5C13.5 22 11 23.5 9 23.5C7 23.5 6.5 21 6.5 19C6.5 16 8 13.5 10.5 13.5C13 13.5 13.5 16.5 13.5 19.5Z" transform="rotate(-12 10 18)"/>
    <!-- Toes (Little to Big) -->
    <circle cx="6.5" cy="12.5" r="0.8" />
    <circle cx="8" cy="11" r="0.9" />
    <circle cx="10" cy="10.5" r="1.1" />
    <circle cx="12" cy="11" r="1.3" />
    <circle cx="14" cy="12.5" r="1.6" />

    <!-- Right Footprint (Higher up, stepping forward) -->
    <!-- Sole -->
    <path d="M25.5 15.5C25.5 18 23 19.5 21 19.5C19 19.5 18.5 17 18.5 15C18.5 12 20 9.5 22.5 9.5C25 9.5 25.5 12.5 25.5 15.5Z" transform="rotate(12 22 14)"/>
    <!-- Toes (Big to Little) -->
    <circle cx="19" cy="8.5" r="1.6" />
    <circle cx="21" cy="7" r="1.3" />
    <circle cx="23" cy="6.5" r="1.1" />
    <circle cx="24.5" cy="7" r="0.9" />
    <circle cx="26" cy="8.5" r="0.8" />
  </g>
</svg>
